<?xml version="1.0" standalone="no"?>
 <!DOCTYPE svg PUBLIC "-//W3C//DTD SVG 1.1//EN" 
 "http://www.w3.org/Graphics/SVG/1.1/DTD/svg11.dtd"> 
<svg
  xmlns:svg="http://www.w3.org/2000/svg"
  xmlns="http://www.w3.org/2000/svg"
  xmlns:xlink="http://www.w3.org/1999/xlink"
  xmlns:inkscape="http://www.inkscape.org/namespaces/inkscape"
  version="1.1"
  width="76.9366mm" height="36.9062mm" viewBox="0.0000 0.0000 76.9366 36.9062">
<title>SVG Image created as twin28xx-F_Courtyard.svg date 2026-05-05T16:52:16 </title>
  <desc>Image generated by PCBNEW </desc>
<g style="fill:#000000; fill-opacity:1.0000;stroke:#000000; stroke-opacity:1.0000;
stroke-linecap:round; stroke-linejoin:round;"
 transform="translate(0 0) scale(1 1)">
<path style="fill:none; 
stroke:#000000; stroke-width:0.0500; stroke-opacity:1; 
stroke-linecap:round; stroke-linejoin:round;fill:none"
d="M 49.5437,28.2818
48.2568,29.5687
47.6063,28.9182
48.8932,27.6313
Z" /> 
<path style="fill:none; 
stroke:#000000; stroke-width:0.0500; stroke-opacity:1; 
stroke-linecap:round; stroke-linejoin:round;fill:none"
d="M 49.2450,34.5300
48.3050,34.5300
48.3050,32.6700
49.2450,32.6700
Z" /> 
<path style="fill:none; 
stroke:#000000; stroke-width:0.0500; stroke-opacity:1; 
stroke-linecap:round; stroke-linejoin:round;fill:none"
d="M 64.2450,11.5274
66.2050,11.5274
66.2050,14.9274
64.2450,14.9274
Z" /> 
<path style="fill:none; 
stroke:#000000; stroke-width:0.0500; stroke-opacity:1; 
stroke-linecap:round; stroke-linejoin:round;fill:none"
d="M 23.5750,4.9075
26.9750,4.9075
26.9750,6.8675
23.5750,6.8675
Z" /> 
<path style="fill:none; 
stroke:#000000; stroke-width:0.0500; stroke-opacity:1; 
stroke-linecap:round; stroke-linejoin:round;fill:none"
d="M 31.6937,23.4093
30.4068,24.6962
29.7563,24.0457
31.0432,22.7588
Z" /> 
</g>
<g style="fill:none; 
stroke:#000000; stroke-width:0.0500; stroke-opacity:1; 
stroke-linecap:round; stroke-linejoin:round;">
<circle cx="11.9750" cy="13.4500" r="1.0000" /> 
<path style="fill:none; 
stroke:#000000; stroke-width:0.0500; stroke-opacity:1; 
stroke-linecap:round; stroke-linejoin:round;fill:none"
d="M 63.6250,0.8920
67.0250,0.8920
67.0250,2.8520
63.6250,2.8520
Z" /> 
<path style="fill:none; 
stroke:#000000; stroke-width:0.0500; stroke-opacity:1; 
stroke-linecap:round; stroke-linejoin:round;fill:none"
d="M 32.5284,31.3133
31.2132,32.6285
30.5485,31.9638
31.8637,30.6486
Z" /> 
<path style="fill:none; 
stroke:#000000; stroke-width:0.0500; stroke-opacity:1; 
stroke-linecap:round; stroke-linejoin:round;fill:none"
d="M 8.5951,8.7474
11.5551,8.7474
11.5551,10.2074
8.5951,10.2074
Z" /> 
<circle cx="3.4750" cy="9.2000" r="2.1500" /> 
<path d="M56.4250 25.0000
L56.4250 28.4000
" />
<path d="M56.4250 28.4000
L60.5250 28.4000
" />
<path d="M60.5250 25.0000
L56.4250 25.0000
" />
<path d="M60.5250 28.4000
L60.5250 25.0000
" />
<path style="fill:none; 
stroke:#000000; stroke-width:0.0500; stroke-opacity:1; 
stroke-linecap:round; stroke-linejoin:round;fill:none"
d="M 8.2350,33.8100
7.3150,33.8100
7.3150,31.9900
8.2350,31.9900
Z" /> 
<path style="fill:none; 
stroke:#000000; stroke-width:0.0500; stroke-opacity:1; 
stroke-linecap:round; stroke-linejoin:round;fill:none"
d="M 49.3881,17.9600
47.5681,17.9600
47.5681,17.0400
49.3881,17.0400
Z" /> 
<circle cx="25.2250" cy="17.4500" r="1.0000" /> 
<circle cx="40.2750" cy="14.5000" r="1.0000" /> 
<path style="fill:none; 
stroke:#000000; stroke-width:0.0500; stroke-opacity:1; 
stroke-linecap:round; stroke-linejoin:round;fill:none"
d="M 44.9437,17.1593
43.6568,18.4462
43.0063,17.7957
44.2932,16.5088
Z" /> 
<path style="fill:none; 
stroke:#000000; stroke-width:0.0500; stroke-opacity:1; 
stroke-linecap:round; stroke-linejoin:round;fill:none"
d="M 23.5780,2.9075
26.9780,2.9075
26.9780,4.8675
23.5780,4.8675
Z" /> 
<circle cx="26.9750" cy="20.4500" r="1.0000" /> 
<circle cx="48.2250" cy="35.9500" r="0.7500" /> 
<path d="M16.3450 18.0975
L16.7250 18.0975
" />
<path d="M16.3450 20.3575
L16.3450 18.0975
" />
<path d="M16.7250 17.4775
L17.3450 17.4775
" />
<path d="M16.7250 18.0975
L16.7250 17.4775
" />
<path d="M16.7250 20.3575
L16.3450 20.3575
" />
<path d="M16.7250 20.9775
L16.7250 20.3575
" />
<path d="M17.3450 17.0975
L19.6050 17.0975
" />
<path d="M17.3450 17.4775
L17.3450 17.0975
" />
<path d="M17.3450 20.9775
L16.7250 20.9775
" />
<path d="M17.3450 21.3575
L17.3450 20.9775
" />
<path d="M19.6050 17.0975
L19.6050 17.4775
" />
<path d="M19.6050 17.4775
L20.2250 17.4775
" />
<path d="M19.6050 20.9775
L19.6050 21.3575
" />
<path d="M19.6050 21.3575
L17.3450 21.3575
" />
<path d="M20.2250 17.4775
L20.2250 18.0975
" />
<path d="M20.2250 18.0975
L20.6050 18.0975
" />
<path d="M20.2250 20.3575
L20.2250 20.9775
" />
<path d="M20.2250 20.9775
L19.6050 20.9775
" />
<path d="M20.6050 18.0975
L20.6050 20.3575
" />
<path d="M20.6050 20.3575
L20.2250 20.3575
" />
<path style="fill:none; 
stroke:#000000; stroke-width:0.0500; stroke-opacity:1; 
stroke-linecap:round; stroke-linejoin:round;fill:none"
d="M 32.6937,18.6593
31.4068,19.9462
30.7563,19.2957
32.0432,18.0088
Z" /> 
<path style="fill:none; 
stroke:#000000; stroke-width:0.0500; stroke-opacity:1; 
stroke-linecap:round; stroke-linejoin:round;fill:none"
d="M 17.5450,27.9800
19.4050,27.9800
19.4050,28.9200
17.5450,28.9200
Z" /> 
<path style="fill:none; 
stroke:#000000; stroke-width:0.0500; stroke-opacity:1; 
stroke-linecap:round; stroke-linejoin:round;fill:none"
d="M 27.5450,31.4700
27.5450,33.3300
26.6050,33.3300
26.6050,31.4700
Z" /> 
<circle cx="26.9750" cy="18.4500" r="1.0000" /> 
<circle cx="47.9750" cy="13.5500" r="1.0000" /> 
<path d="M41.0325 13.7860
L39.6890 12.4425
" />
<path d="M42.5175 9.6140
L39.6890 12.4425
" />
<path d="M43.8610 10.9575
L41.0325 13.7860
" />
<path d="M43.8610 10.9575
L42.5175 9.6140
" />
<path style="fill:none; 
stroke:#000000; stroke-width:0.0500; stroke-opacity:1; 
stroke-linecap:round; stroke-linejoin:round;fill:none"
d="M 62.4950,8.7474
65.4550,8.7474
65.4550,10.2074
62.4950,10.2074
Z" /> 
<circle cx="3.4750" cy="3.4500" r="3.4500" /> 
<path style="fill:none; 
stroke:#000000; stroke-width:0.0500; stroke-opacity:1; 
stroke-linecap:round; stroke-linejoin:round;fill:none"
d="M 62.0150,5.8174
62.9350,5.8174
62.9350,7.6374
62.0150,7.6374
Z" /> 
<path style="fill:none; 
stroke:#000000; stroke-width:0.0500; stroke-opacity:1; 
stroke-linecap:round; stroke-linejoin:round;fill:none"
d="M 21.2182,27.6763
20.5677,28.3268
19.2807,27.0399
19.9313,26.3894
Z" /> 
<path style="fill:none; 
stroke:#000000; stroke-width:0.0500; stroke-opacity:1; 
stroke-linecap:round; stroke-linejoin:round;fill:none"
d="M 67.0250,0.8670
70.4250,0.8670
70.4250,2.8270
67.0250,2.8270
Z" /> 
<circle cx="54.7250" cy="18.3000" r="1.0000" /> 
<path style="fill:none; 
stroke:#000000; stroke-width:0.0500; stroke-opacity:1; 
stroke-linecap:round; stroke-linejoin:round;fill:none"
d="M 57.5214,21.7200
58.9814,21.7200
58.9814,24.6800
57.5214,24.6800
Z" /> 
<path style="fill:none; 
stroke:#000000; stroke-width:0.0500; stroke-opacity:1; 
stroke-linecap:round; stroke-linejoin:round;fill:none"
d="M 67.0250,2.8545
70.4250,2.8545
70.4250,4.8145
67.0250,4.8145
Z" /> 
<path style="fill:none; 
stroke:#000000; stroke-width:0.0500; stroke-opacity:1; 
stroke-linecap:round; stroke-linejoin:round;fill:none"
d="M 29.8050,11.5700
30.7450,11.5700
30.7450,13.4300
29.8050,13.4300
Z" /> 
<circle cx="11.9750" cy="16.9500" r="1.0000" /> 
<circle cx="54.7250" cy="16.3000" r="1.0000" /> 
<path d="M27.7750 32.8625
L34.7750 32.8625
" />
<path d="M27.7750 36.8625
L27.7750 32.8625
" />
<path d="M34.7750 32.8625
L34.7750 36.8625
" />
<path d="M34.7750 36.8625
L27.7750 36.8625
" />
<path style="fill:none; 
stroke:#000000; stroke-width:0.0500; stroke-opacity:1; 
stroke-linecap:round; stroke-linejoin:round;fill:none"
d="M 62.4950,11.5274
64.4550,11.5274
64.4550,14.9274
62.4950,14.9274
Z" /> 
<path style="fill:none; 
stroke:#000000; stroke-width:0.0500; stroke-opacity:1; 
stroke-linecap:round; stroke-linejoin:round;fill:none"
d="M 25.2149,29.0253
24.5503,29.6899
23.2351,28.3747
23.8997,27.7101
Z" /> 
<path style="fill:none; 
stroke:#000000; stroke-width:0.0500; stroke-opacity:1; 
stroke-linecap:round; stroke-linejoin:round;fill:none"
d="M 36.7649,11.9747
35.4497,13.2899
34.7851,12.6253
36.1003,11.3100
Z" /> 
<circle cx="25.2250" cy="19.4500" r="1.0000" /> 
<circle cx="28.7250" cy="14.2000" r="1.0000" /> 
<path d="M56.3450 18.0975
L56.7250 18.0975
" />
<path d="M56.3450 20.3575
L56.3450 18.0975
" />
<path d="M56.7250 17.4775
L57.3450 17.4775
" />
<path d="M56.7250 18.0975
L56.7250 17.4775
" />
<path d="M56.7250 20.3575
L56.3450 20.3575
" />
<path d="M56.7250 20.9775
L56.7250 20.3575
" />
<path d="M57.3450 17.0975
L59.6050 17.0975
" />
<path d="M57.3450 17.4775
L57.3450 17.0975
" />
<path d="M57.3450 20.9775
L56.7250 20.9775
" />
<path d="M57.3450 21.3575
L57.3450 20.9775
" />
<path d="M59.6050 17.0975
L59.6050 17.4775
" />
<path d="M59.6050 17.4775
L60.2250 17.4775
" />
<path d="M59.6050 20.9775
L59.6050 21.3575
" />
<path d="M59.6050 21.3575
L57.3450 21.3575
" />
<path d="M60.2250 17.4775
L60.2250 18.0975
" />
<path d="M60.2250 18.0975
L60.6050 18.0975
" />
<path d="M60.2250 20.3575
L60.2250 20.9775
" />
<path d="M60.2250 20.9775
L59.6050 20.9775
" />
<path d="M60.6050 18.0975
L60.6050 20.3575
" />
<path d="M60.6050 20.3575
L60.2250 20.3575
" />
<circle cx="52.9750" cy="15.3000" r="1.0000" /> 
<path style="fill:none; 
stroke:#000000; stroke-width:0.0500; stroke-opacity:1; 
stroke-linecap:round; stroke-linejoin:round;fill:none"
d="M 63.6250,4.8325
67.0250,4.8325
67.0250,6.7925
63.6250,6.7925
Z" /> 
<path style="fill:none; 
stroke:#000000; stroke-width:0.0500; stroke-opacity:1; 
stroke-linecap:round; stroke-linejoin:round;fill:none"
d="M 32.0227,30.3672
30.7357,31.6542
30.0852,31.0036
31.3721,29.7167
Z" /> 
<path style="fill:none; 
stroke:#000000; stroke-width:0.0500; stroke-opacity:1; 
stroke-linecap:round; stroke-linejoin:round;fill:none"
d="M 48.2450,34.5300
47.3050,34.5300
47.3050,32.6700
48.2450,32.6700
Z" /> 
<path style="fill:none; 
stroke:#000000; stroke-width:0.0500; stroke-opacity:1; 
stroke-linecap:round; stroke-linejoin:round;fill:none"
d="M 43.1756,14.6925
41.8604,16.0077
41.1958,15.3431
42.5110,14.0278
Z" /> 
<path d="M65.3233 26.6975
L67.7275 29.1016
" />
<path d="M67.7275 29.1016
L70.6266 26.2025
" />
<path d="M68.2225 23.7983
L65.3233 26.6975
" />
<path d="M70.6266 26.2025
L68.2225 23.7983
" />
<path style="fill:none; 
stroke:#000000; stroke-width:0.0500; stroke-opacity:1; 
stroke-linecap:round; stroke-linejoin:round;fill:none"
d="M 54.7450,23.4700
54.7450,25.3300
53.8050,25.3300
53.8050,23.4700
Z" /> 
<path style="fill:none; 
stroke:#000000; stroke-width:0.0500; stroke-opacity:1; 
stroke-linecap:round; stroke-linejoin:round;fill:none"
d="M 56.7050,31.5550
55.2450,31.5550
55.2450,28.5950
56.7050,28.5950
Z" /> 
<circle cx="51.9750" cy="13.5500" r="1.0000" /> 
<path style="fill:none; 
stroke:#000000; stroke-width:0.0500; stroke-opacity:1; 
stroke-linecap:round; stroke-linejoin:round;fill:none"
d="M 18.9951,11.5274
20.9551,11.5274
20.9551,14.9274
18.9951,14.9274
Z" /> 
<path style="fill:none; 
stroke:#000000; stroke-width:0.0500; stroke-opacity:1; 
stroke-linecap:round; stroke-linejoin:round;fill:none"
d="M 74.6150,25.8400
76.4350,25.8400
76.4350,26.7600
74.6150,26.7600
Z" /> 
<path style="fill:none; 
stroke:#000000; stroke-width:0.0500; stroke-opacity:1; 
stroke-linecap:round; stroke-linejoin:round;fill:none"
d="M 2.2050,26.0700
0.3450,26.0700
0.3450,25.1300
2.2050,25.1300
Z" /> 
<circle cx="45.4750" cy="15.7000" r="1.0000" /> 
<circle cx="52.9750" cy="17.3000" r="1.0000" /> 
<path style="fill:none; 
stroke:#000000; stroke-width:0.0500; stroke-opacity:1; 
stroke-linecap:round; stroke-linejoin:round;fill:none"
d="M 38.9437,32.2957
38.2932,32.9462
37.0063,31.6593
37.6568,31.0088
Z" /> 
<circle cx="66.7250" cy="21.4500" r="1.0000" /> 
<path style="fill:none; 
stroke:#000000; stroke-width:0.0500; stroke-opacity:1; 
stroke-linecap:round; stroke-linejoin:round;fill:none"
d="M 55.3050,31.5800
53.8450,31.5800
53.8450,28.6200
55.3050,28.6200
Z" /> 
<path style="fill:none; 
stroke:#000000; stroke-width:0.0500; stroke-opacity:1; 
stroke-linecap:round; stroke-linejoin:round;fill:none"
d="M 20.1720,4.9200
23.5720,4.9200
23.5720,6.8800
20.1720,6.8800
Z" /> 
<path style="fill:none; 
stroke:#000000; stroke-width:0.0500; stroke-opacity:1; 
stroke-linecap:round; stroke-linejoin:round;fill:none"
d="M 9.3050,24.5700
7.4450,24.5700
7.4450,23.6300
9.3050,23.6300
Z" /> 
<circle cx="69.4750" cy="23.2000" r="1.0000" /> 
<path style="fill:none; 
stroke:#000000; stroke-width:0.0500; stroke-opacity:1; 
stroke-linecap:round; stroke-linejoin:round;fill:none"
d="M 63.6250,2.8670
67.0250,2.8670
67.0250,4.8270
63.6250,4.8270
Z" /> 
<circle cx="73.4750" cy="33.4500" r="3.4500" /> 
<path style="fill:none; 
stroke:#000000; stroke-width:0.0500; stroke-opacity:1; 
stroke-linecap:round; stroke-linejoin:round;fill:none"
d="M 7.4350,23.1100
6.5150,23.1100
6.5150,21.2900
7.4350,21.2900
Z" /> 
<path style="fill:none; 
stroke:#000000; stroke-width:0.0500; stroke-opacity:1; 
stroke-linecap:round; stroke-linejoin:round;fill:none"
d="M 35.0150,14.6900
35.9350,14.6900
35.9350,16.5100
35.0150,16.5100
Z" /> 
<circle cx="52.9750" cy="19.3000" r="1.0000" /> 
<path style="fill:none; 
stroke:#000000; stroke-width:0.0500; stroke-opacity:1; 
stroke-linecap:round; stroke-linejoin:round;fill:none"
d="M 33.0150,14.8175
33.9350,14.8175
33.9350,16.6375
33.0150,16.6375
Z" /> 
<path style="fill:none; 
stroke:#000000; stroke-width:0.0500; stroke-opacity:1; 
stroke-linecap:round; stroke-linejoin:round;fill:none"
d="M 31.0713,29.8562
29.7561,31.1714
29.0914,30.5067
30.4066,29.1915
Z" /> 
<path style="fill:none; 
stroke:#000000; stroke-width:0.0500; stroke-opacity:1; 
stroke-linecap:round; stroke-linejoin:round;fill:none"
d="M 20.7451,11.5274
22.7051,11.5274
22.7051,14.9274
20.7451,14.9274
Z" /> 
<circle cx="26.9482" cy="10.3303" r="1.0000" /> 
<path style="fill:none; 
stroke:#000000; stroke-width:0.0500; stroke-opacity:1; 
stroke-linecap:round; stroke-linejoin:round;fill:none"
d="M 20.1750,0.9075
23.5750,0.9075
23.5750,2.8675
20.1750,2.8675
Z" /> 
<path style="fill:none; 
stroke:#000000; stroke-width:0.0500; stroke-opacity:1; 
stroke-linecap:round; stroke-linejoin:round;fill:none"
d="M 19.2450,21.4700
22.2050,21.4700
22.2050,22.9300
19.2450,22.9300
Z" /> 
<path style="fill:none; 
stroke:#000000; stroke-width:0.0500; stroke-opacity:1; 
stroke-linecap:round; stroke-linejoin:round;fill:none"
d="M 21.9950,7.9974
24.9550,7.9974
24.9550,9.4574
21.9950,9.4574
Z" /> 
<circle cx="10.6659" cy="18.5919" r="1.0000" /> 
<circle cx="12.9750" cy="15.2000" r="1.0000" /> 
<circle cx="66.7250" cy="23.4500" r="1.0000" /> 
<path style="fill:none; 
stroke:#000000; stroke-width:0.0500; stroke-opacity:1; 
stroke-linecap:round; stroke-linejoin:round;fill:none"
d="M 11.4550,27.2000
11.4550,30.6000
9.4950,30.6000
9.4950,27.2000
Z" /> 
<circle cx="73.4750" cy="9.2000" r="2.1500" /> 
<path style="fill:none; 
stroke:#000000; stroke-width:0.0500; stroke-opacity:1; 
stroke-linecap:round; stroke-linejoin:round;fill:none"
d="M 55.7350,23.4900
55.7350,25.3100
54.8150,25.3100
54.8150,23.4900
Z" /> 
<path style="fill:none; 
stroke:#000000; stroke-width:0.0500; stroke-opacity:1; 
stroke-linecap:round; stroke-linejoin:round;fill:none"
d="M 54.4450,5.5300
56.3050,5.5300
56.3050,6.4700
54.4450,6.4700
Z" /> 
<path style="fill:none; 
stroke:#000000; stroke-width:0.0500; stroke-opacity:1; 
stroke-linecap:round; stroke-linejoin:round;fill:none"
d="M 44.4150,11.8747
43.0997,13.1899
42.4350,12.5253
43.7503,11.2101
Z" /> 
<circle cx="75.9750" cy="7.2000" r="0.7500" /> 
<path style="fill:none; 
stroke:#000000; stroke-width:0.0500; stroke-opacity:1; 
stroke-linecap:round; stroke-linejoin:round;fill:none"
d="M 22.6371,29.1078
21.9865,29.7584
20.6996,28.4714
21.3501,27.8209
Z" /> 
<circle cx="47.0750" cy="30.3000" r="1.0000" /> 
<path style="fill:none; 
stroke:#000000; stroke-width:0.0500; stroke-opacity:1; 
stroke-linecap:round; stroke-linejoin:round;fill:none"
d="M 39.1450,15.4300
38.2050,15.4300
38.2050,13.5700
39.1450,13.5700
Z" /> 
<circle cx="6.6422" cy="20.2277" r="1.0000" /> 
<path style="fill:none; 
stroke:#000000; stroke-width:0.0500; stroke-opacity:1; 
stroke-linecap:round; stroke-linejoin:round;fill:none"
d="M 13.3112,27.2000
13.3112,30.6000
11.3512,30.6000
11.3512,27.2000
Z" /> 
<circle cx="73.4750" cy="19.3000" r="2.1500" /> 
<circle cx="28.7250" cy="16.2000" r="1.0000" /> 
<path style="fill:none; 
stroke:#000000; stroke-width:0.0500; stroke-opacity:1; 
stroke-linecap:round; stroke-linejoin:round;fill:none"
d="M 6.7650,26.9400
8.5850,26.9400
8.5850,27.8600
6.7650,27.8600
Z" /> 
<path d="M34.9350 33.1800
L41.0150 33.1800
" />
<path d="M34.9350 36.7200
L34.9350 33.1800
" />
<path d="M41.0150 33.1800
L41.0150 36.7200
" />
<path d="M41.0150 36.7200
L34.9350 36.7200
" />
<circle cx="3.4750" cy="19.2000" r="2.1500" /> 
<path style="fill:none; 
stroke:#000000; stroke-width:0.0500; stroke-opacity:1; 
stroke-linecap:round; stroke-linejoin:round;fill:none"
d="M 55.7450,21.7200
57.2050,21.7200
57.2050,24.6800
55.7450,24.6800
Z" /> 
<circle cx="48.9750" cy="15.3000" r="1.0000" /> 
<path d="M52.7750 8.5000
L52.7750 4.5000
" />
<path d="M52.7750 8.5000
L54.6750 8.5000
" />
<path d="M52.7750 4.5000
L54.6750 4.5000
" />
<path d="M54.6750 8.5000
L54.6750 4.5000
" />
<path style="fill:none; 
stroke:#000000; stroke-width:0.0500; stroke-opacity:1; 
stroke-linecap:round; stroke-linejoin:round;fill:none"
d="M 30.7877,22.6972
28.6947,24.7902
27.6623,23.7578
29.7553,21.6648
Z" /> 
<path style="fill:none; 
stroke:#000000; stroke-width:0.0500; stroke-opacity:1; 
stroke-linecap:round; stroke-linejoin:round;fill:none"
d="M 44.9450,31.7300
46.8050,31.7300
46.8050,32.6700
44.9450,32.6700
Z" /> 
<path style="fill:none; 
stroke:#000000; stroke-width:0.0500; stroke-opacity:1; 
stroke-linecap:round; stroke-linejoin:round;fill:none"
d="M 9.6450,24.5700
9.6450,26.4300
8.7050,26.4300
8.7050,24.5700
Z" /> 
<path d="M20.1734 26.4750
L22.5776 28.8791
" />
<path d="M22.5776 28.8791
L25.4767 25.9800
" />
<path d="M23.0726 23.5758
L20.1734 26.4750
" />
<path d="M25.4767 25.9800
L23.0726 23.5758
" />
<circle cx="73.5320" cy="3.4500" r="3.4500" /> 
<path style="fill:none; 
stroke:#000000; stroke-width:0.0500; stroke-opacity:1; 
stroke-linecap:round; stroke-linejoin:round;fill:none"
d="M 47.1937,24.0457
46.5432,24.6962
45.2563,23.4093
45.9068,22.7588
Z" /> 
<path style="fill:none; 
stroke:#000000; stroke-width:0.0500; stroke-opacity:1; 
stroke-linecap:round; stroke-linejoin:round;fill:none"
d="M 18.5151,5.8174
19.4351,5.8174
19.4351,7.6374
18.5151,7.6374
Z" /> 
<path style="fill:none; 
stroke:#000000; stroke-width:0.0500; stroke-opacity:1; 
stroke-linecap:round; stroke-linejoin:round;fill:none"
d="M 44.5899,16.1067
43.2746,17.4219
42.6100,16.7573
43.9252,15.4420
Z" /> 
<circle cx="7.9750" cy="1.5000" r="0.7500" /> 
<circle cx="3.4750" cy="33.4500" r="3.4500" /> 
<path style="fill:none; 
stroke:#000000; stroke-width:0.0500; stroke-opacity:1; 
stroke-linecap:round; stroke-linejoin:round;fill:none"
d="M 34.0050,14.1975
34.9450,14.1975
34.9450,16.0575
34.0050,16.0575
Z" /> 
<circle cx="9.9595" cy="13.4769" r="1.0000" /> 
<path style="fill:none; 
stroke:#000000; stroke-width:0.0500; stroke-opacity:1; 
stroke-linecap:round; stroke-linejoin:round;fill:none"
d="M 49.3850,22.8600
47.5650,22.8600
47.5650,21.9400
49.3850,21.9400
Z" /> 
<path d="M2.2750 28.7000
L2.2750 26.9000
" />
<path d="M2.2750 26.9000
L3.4250 26.9000
" />
<path d="M2.4750 28.7000
L2.2750 28.7000
" />
<path d="M2.4750 29.7300
L2.4750 28.7000
" />
<path d="M3.4250 26.9000
L3.4250 25.8700
" />
<path d="M3.4250 25.8700
L4.5250 25.8700
" />
<path d="M3.5850 28.7000
L3.5850 29.7300
" />
<path d="M3.5850 29.7300
L2.4750 29.7300
" />
<path d="M4.3650 28.7000
L3.5850 28.7000
" />
<path d="M4.3650 29.7300
L4.3650 28.7000
" />
<path d="M4.5250 25.8700
L4.5250 26.9000
" />
<path d="M4.5250 26.9000
L5.6750 26.9000
" />
<path d="M5.4750 28.7000
L5.4750 29.7300
" />
<path d="M5.4750 29.7300
L4.3650 29.7300
" />
<path d="M5.6750 28.7000
L5.4750 28.7000
" />
<path d="M5.6750 26.9000
L5.6750 28.7000
" />
<circle cx="66.7250" cy="17.4500" r="1.0000" /> 
<circle cx="6.0750" cy="23.7000" r="1.0000" /> 
<circle cx="49.9750" cy="13.5500" r="1.0000" /> 
<circle cx="66.7250" cy="19.4500" r="1.0000" /> 
<path style="fill:none; 
stroke:#000000; stroke-width:0.0500; stroke-opacity:1; 
stroke-linecap:round; stroke-linejoin:round;fill:none"
d="M 64.8050,28.7700
65.7450,28.7700
65.7450,30.6300
64.8050,30.6300
Z" /> 
<path d="M9.1250 8.6000
L9.1250 4.6000
" />
<path d="M9.1250 8.6000
L11.0250 8.6000
" />
<path d="M9.1250 4.6000
L11.0250 4.6000
" />
<path d="M11.0250 8.6000
L11.0250 4.6000
" />
<path style="fill:none; 
stroke:#000000; stroke-width:0.0500; stroke-opacity:1; 
stroke-linecap:round; stroke-linejoin:round;fill:none"
d="M 54.7550,6.5474
55.6950,6.5474
55.6950,8.4074
54.7550,8.4074
Z" /> 
<path style="fill:none; 
stroke:#000000; stroke-width:0.0500; stroke-opacity:1; 
stroke-linecap:round; stroke-linejoin:round;fill:none"
d="M 20.5650,17.2400
22.3850,17.2400
22.3850,18.1600
20.5650,18.1600
Z" /> 
<path style="fill:none; 
stroke:#000000; stroke-width:0.0500; stroke-opacity:1; 
stroke-linecap:round; stroke-linejoin:round;fill:none"
d="M 66.0550,28.7700
66.9950,28.7700
66.9950,30.6300
66.0550,30.6300
Z" /> 
<circle cx="50.9750" cy="15.3000" r="1.0000" /> 
<circle cx="49.0750" cy="30.3000" r="1.0000" /> 
<path style="fill:none; 
stroke:#000000; stroke-width:0.0500; stroke-opacity:1; 
stroke-linecap:round; stroke-linejoin:round;fill:none"
d="M 11.2551,6.5474
12.1951,6.5474
12.1951,8.4074
11.2551,8.4074
Z" /> 
<path style="fill:none; 
stroke:#000000; stroke-width:0.0500; stroke-opacity:1; 
stroke-linecap:round; stroke-linejoin:round;fill:none"
d="M 65.4950,7.9974
68.4550,7.9974
68.4550,9.4574
65.4950,9.4574
Z" /> 
<path d="M41.1850 33.1800
L47.2650 33.1800
" />
<path d="M41.1850 36.7200
L41.1850 33.1800
" />
<path d="M47.2650 33.1800
L47.2650 36.7200
" />
<path d="M47.2650 36.7200
L41.1850 36.7200
" />
<path style="fill:none; 
stroke:#000000; stroke-width:0.0500; stroke-opacity:1; 
stroke-linecap:round; stroke-linejoin:round;fill:none"
d="M 31.4437,19.9093
30.1568,21.1962
29.5063,20.5457
30.7932,19.2588
Z" /> 
<path style="fill:none; 
stroke:#000000; stroke-width:0.0500; stroke-opacity:1; 
stroke-linecap:round; stroke-linejoin:round;fill:none"
d="M 49.2050,34.5700
47.3450,34.5700
47.3450,33.6300
49.2050,33.6300
Z" /> 
<path style="fill:none; 
stroke:#000000; stroke-width:0.0500; stroke-opacity:1; 
stroke-linecap:round; stroke-linejoin:round;fill:none"
d="M 32.0050,14.1975
32.9450,14.1975
32.9450,16.0575
32.0050,16.0575
Z" /> 
<circle cx="10.6659" cy="22.5919" r="1.0000" /> 
<circle cx="70.2250" cy="21.2000" r="1.0000" /> 
<path style="fill:none; 
stroke:#000000; stroke-width:0.0500; stroke-opacity:1; 
stroke-linecap:round; stroke-linejoin:round;fill:none"
d="M 67.0250,4.8200
70.4250,4.8200
70.4250,6.7800
67.0250,6.7800
Z" /> 
<circle cx="44.0608" cy="14.2858" r="1.0000" /> 
<circle cx="10.9750" cy="15.2000" r="1.0000" /> 
<circle cx="28.4750" cy="28.2000" r="1.0000" /> 
<circle cx="13.9750" cy="16.9500" r="1.0000" /> 
<path d="M16.2875 23.2500
L16.2875 26.6500
" />
<path d="M16.2875 26.6500
L20.3875 26.6500
" />
<path d="M20.3875 23.2500
L16.2875 23.2500
" />
<path d="M20.3875 26.6500
L20.3875 23.2500
" />
<circle cx="10.6659" cy="24.5919" r="1.0000" /> 
<path style="fill:none; 
stroke:#000000; stroke-width:0.0500; stroke-opacity:1; 
stroke-linecap:round; stroke-linejoin:round;fill:none"
d="M 71.3950,27.6200
71.3950,29.4800
70.4550,29.4800
70.4550,27.6200
Z" /> 
<path style="fill:none; 
stroke:#000000; stroke-width:0.0500; stroke-opacity:1; 
stroke-linecap:round; stroke-linejoin:round;fill:none"
d="M 49.6850,32.5600
47.8650,32.5600
47.8650,31.6400
49.6850,31.6400
Z" /> 
<path style="fill:none; 
stroke:#000000; stroke-width:0.0500; stroke-opacity:1; 
stroke-linecap:round; stroke-linejoin:round;fill:none"
d="M 53.6550,26.4300
50.6950,26.4300
50.6950,24.9700
53.6550,24.9700
Z" /> 
<circle cx="52.7750" cy="23.9000" r="1.0000" /> 
<circle cx="14.6750" cy="30.5000" r="1.0000" /> 
<path style="fill:none; 
stroke:#000000; stroke-width:0.0500; stroke-opacity:1; 
stroke-linecap:round; stroke-linejoin:round;fill:none"
d="M 38.1625,15.3600
37.2425,15.3600
37.2425,13.5400
38.1625,13.5400
Z" /> 
<path style="fill:none; 
stroke:#000000; stroke-width:0.0500; stroke-opacity:1; 
stroke-linecap:round; stroke-linejoin:round;fill:none"
d="M 20.1750,2.9200
23.5750,2.9200
23.5750,4.8800
20.1750,4.8800
Z" /> 
<path d="M30.8029 22.4244
L36.6719 16.5554
" />
<path d="M30.8029 26.0306
L31.8282 25.0053
" />
<path d="M31.0504 24.2275
L31.8282 23.4497
" />
<path d="M31.8282 23.4497
L30.8029 22.4244
" />
<path d="M31.8282 25.0053
L31.0504 24.2275
" />
<path d="M36.6719 16.5554
L37.6972 17.5807
" />
<path d="M36.6719 31.8996
L30.8029 26.0306
" />
<path d="M37.6972 17.5807
L38.4750 16.8029
" />
<path d="M37.6972 30.8743
L36.6719 31.8996
" />
<path d="M38.4750 16.8029
L39.2528 17.5807
" />
<path d="M38.4750 31.6521
L37.6972 30.8743
" />
<path d="M39.2528 17.5807
L40.2781 16.5554
" />
<path d="M39.2528 30.8743
L38.4750 31.6521
" />
<path d="M40.2781 16.5554
L46.1471 22.4244
" />
<path d="M40.2781 31.8996
L39.2528 30.8743
" />
<path d="M45.1218 23.4497
L45.8996 24.2275
" />
<path d="M45.1218 25.0053
L46.1471 26.0306
" />
<path d="M45.8996 24.2275
L45.1218 25.0053
" />
<path d="M46.1471 22.4244
L45.1218 23.4497
" />
<path d="M46.1471 26.0306
L40.2781 31.8996
" />
<path style="fill:none; 
stroke:#000000; stroke-width:0.0500; stroke-opacity:1; 
stroke-linecap:round; stroke-linejoin:round;fill:none"
d="M 43.5295,15.7451
42.2426,17.0320
41.5921,16.3815
42.8790,15.0946
Z" /> 
<circle cx="25.9750" cy="8.2660" r="1.0000" /> 
<path style="fill:none; 
stroke:#000000; stroke-width:0.0500; stroke-opacity:1; 
stroke-linecap:round; stroke-linejoin:round;fill:none"
d="M 16.2450,21.4700
19.2050,21.4700
19.2050,22.9300
16.2450,22.9300
Z" /> 
<path style="fill:none; 
stroke:#000000; stroke-width:0.0500; stroke-opacity:1; 
stroke-linecap:round; stroke-linejoin:round;fill:none"
d="M 33.4437,19.4093
32.1568,20.6962
31.5063,20.0457
32.7932,18.7588
Z" /> 
<path style="fill:none; 
stroke:#000000; stroke-width:0.0500; stroke-opacity:1; 
stroke-linecap:round; stroke-linejoin:round;fill:none"
d="M 23.5780,0.8825
26.9780,0.8825
26.9780,2.8425
23.5780,2.8425
Z" /> 
<path style="fill:none; 
stroke:#000000; stroke-width:0.0500; stroke-opacity:1; 
stroke-linecap:round; stroke-linejoin:round;fill:none"
d="M 11.0450,5.5300
12.9050,5.5300
12.9050,6.4700
11.0450,6.4700
Z" /> 
<path style="fill:none; 
stroke:#000000; stroke-width:0.0500; stroke-opacity:1; 
stroke-linecap:round; stroke-linejoin:round;fill:none"
d="M 61.6850,17.3600
59.8650,17.3600
59.8650,16.4400
61.6850,16.4400
Z" /> 
<circle cx="27.4750" cy="29.9500" r="1.0000" /> 
<path style="fill:none; 
stroke:#000000; stroke-width:0.0500; stroke-opacity:1; 
stroke-linecap:round; stroke-linejoin:round;fill:none"
d="M 52.2450,8.5700
55.2050,8.5700
55.2050,10.0300
52.2450,10.0300
Z" /> 
<path style="fill:none; 
stroke:#000000; stroke-width:0.0500; stroke-opacity:1; 
stroke-linecap:round; stroke-linejoin:round;fill:none"
d="M 22.2450,19.9700
23.7050,19.9700
23.7050,22.9300
22.2450,22.9300
Z" /> 
<path style="fill:none; 
stroke:#000000; stroke-width:0.0500; stroke-opacity:1; 
stroke-linecap:round; stroke-linejoin:round;fill:none"
d="M 59.2450,21.7200
60.7050,21.7200
60.7050,24.6800
59.2450,24.6800
Z" /> 
<path style="fill:none; 
stroke:#000000; stroke-width:0.0500; stroke-opacity:1; 
stroke-linecap:round; stroke-linejoin:round;fill:none"
d="M 74.0550,26.7700
72.1950,26.7700
72.1950,25.8300
74.0550,25.8300
Z" /> 
<circle cx="10.6659" cy="20.5919" r="1.0000" /> 
<path d="M4.5750 26.7500
L8.5750 26.7500
" />
<path d="M4.5750 24.8500
L4.5750 26.7500
" />
<path d="M4.5750 24.8500
L8.5750 24.8500
" />
<path d="M8.5750 24.8500
L8.5750 26.7500
" />
<path style="fill:none; 
stroke:#000000; stroke-width:0.0500; stroke-opacity:1; 
stroke-linecap:round; stroke-linejoin:round;fill:none"
d="M 30.7366,28.7022
29.4497,29.9891
28.7992,29.3386
30.0861,28.0517
Z" /> 
<path style="fill:none; 
stroke:#000000; stroke-width:0.0500; stroke-opacity:1; 
stroke-linecap:round; stroke-linejoin:round;fill:none"
d="M 18.9951,8.7474
21.9551,8.7474
21.9551,10.2074
18.9951,10.2074
Z" /> 
<path style="fill:none; 
stroke:#000000; stroke-width:0.0500; stroke-opacity:1; 
stroke-linecap:round; stroke-linejoin:round;fill:none"
d="M 32.1937,20.6593
30.9068,21.9462
30.2563,21.2957
31.5432,20.0088
Z" /> 
<path style="fill:none; 
stroke:#000000; stroke-width:0.0500; stroke-opacity:1; 
stroke-linecap:round; stroke-linejoin:round;fill:none"
d="M 41.8050,1.2700
39.9450,1.2700
39.9450,0.3300
41.8050,0.3300
Z" /> 
<circle cx="1.9750" cy="22.9000" r="1.0000" /> 
<path style="fill:none; 
stroke:#000000; stroke-width:0.0500; stroke-opacity:1; 
stroke-linecap:round; stroke-linejoin:round;fill:none"
d="M 39.9437,16.7957
39.2932,17.4462
38.0063,16.1593
38.6568,15.5088
Z" /> 
</g>
<g style="fill:#000000; fill-opacity:1.0000; stroke:none;">
<circle cx="61.7651" cy="2.3494" r="0.7000" /> 
<circle cx="59.2251" cy="2.3494" r="0.7000" /> 
<circle cx="56.6851" cy="2.3494" r="0.7000" /> 
<circle cx="18.2750" cy="2.3000" r="0.7000" /> 
<circle cx="15.7350" cy="2.3000" r="0.7000" /> 
<circle cx="13.1950" cy="2.3000" r="0.7000" /> 
<circle cx="3.4750" cy="9.2000" r="1.1000" /> 
<circle cx="32.4750" cy="8.5400" r="0.5000" /> 
<circle cx="32.4750" cy="3.4600" r="0.5000" /> 
<circle cx="73.4750" cy="33.4500" r="1.9000" /> 
<circle cx="47.1998" cy="8.5400" r="0.5000" /> 
<circle cx="47.1998" cy="3.4600" r="0.5000" /> 
<circle cx="5.8750" cy="3.4500" r="0.2500" /> 
<circle cx="5.1721" cy="5.1471" r="0.2500" /> 
<circle cx="5.1721" cy="1.7529" r="0.2500" /> 
<circle cx="3.4750" cy="5.8500" r="0.2500" /> 
<circle cx="3.4750" cy="3.4500" r="1.6000" /> 
<circle cx="3.4750" cy="1.0500" r="0.2500" /> 
<circle cx="1.7779" cy="5.1471" r="0.2500" /> 
<circle cx="1.7779" cy="1.7529" r="0.2500" /> 
<circle cx="1.0750" cy="3.4500" r="0.2500" /> 
<circle cx="3.4750" cy="3.4500" r="1.9000" /> 
<circle cx="28.7350" cy="34.8625" r="0.4953" /> 
<circle cx="33.8150" cy="35.8785" r="0.4953" /> 
<circle cx="33.8150" cy="33.8465" r="0.4953" /> 
<circle cx="17.9252" cy="32.0109" r="0.3750" /> 
<circle cx="23.7250" cy="32.0109" r="0.3750" /> 
</g>
<g style="fill:none; 
stroke:#000000; stroke-width:0.8000; stroke-opacity:1; 
stroke-linecap:round; stroke-linejoin:round;">
<path d="M25.1502 31.1108
L25.1502 31.9108
" />
<path d="M25.1502 35.3906
L25.1502 35.9906
" />
<path d="M16.5000 35.3906
L16.5000 35.9906
" />
<path d="M16.5000 31.1108
L16.5000 31.9108
" />
</g>
<g style="fill:#000000; fill-opacity:1.0000; stroke:none;">
<circle cx="75.8750" cy="33.4500" r="0.2500" /> 
<circle cx="75.1721" cy="35.1471" r="0.2500" /> 
<circle cx="75.1721" cy="31.7529" r="0.2500" /> 
<circle cx="73.4750" cy="35.8500" r="0.2500" /> 
<circle cx="73.4750" cy="33.4500" r="1.6000" /> 
<circle cx="73.4750" cy="31.0500" r="0.2500" /> 
<circle cx="71.7779" cy="35.1471" r="0.2500" /> 
<circle cx="71.7779" cy="31.7529" r="0.2500" /> 
<circle cx="71.0750" cy="33.4500" r="0.2500" /> 
<circle cx="73.5320" cy="3.4500" r="1.9000" /> 
<circle cx="73.4750" cy="9.2000" r="1.1000" /> 
<circle cx="3.4750" cy="33.4500" r="1.9000" /> 
<circle cx="73.4750" cy="19.3000" r="1.1000" /> 
<circle cx="36.7050" cy="34.9500" r="0.5000" /> 
<circle cx="39.2450" cy="34.9500" r="0.5000" /> 
<circle cx="3.4750" cy="19.2000" r="1.1000" /> 
<circle cx="75.9320" cy="3.4500" r="0.2500" /> 
<circle cx="75.2291" cy="5.1471" r="0.2500" /> 
<circle cx="75.2291" cy="1.7529" r="0.2500" /> 
<circle cx="73.5320" cy="5.8500" r="0.2500" /> 
<circle cx="73.5320" cy="3.4500" r="1.6000" /> 
<circle cx="73.5320" cy="1.0500" r="0.2500" /> 
<circle cx="71.8349" cy="5.1471" r="0.2500" /> 
<circle cx="71.8349" cy="1.7529" r="0.2500" /> 
<circle cx="71.1320" cy="3.4500" r="0.2500" /> 
<circle cx="5.8750" cy="33.4500" r="0.2500" /> 
<circle cx="5.1721" cy="35.1471" r="0.2500" /> 
<circle cx="5.1721" cy="31.7529" r="0.2500" /> 
<circle cx="3.4750" cy="35.8500" r="0.2500" /> 
<circle cx="3.4750" cy="33.4500" r="1.6000" /> 
<circle cx="3.4750" cy="31.0500" r="0.2500" /> 
<circle cx="1.7779" cy="35.1471" r="0.2500" /> 
<circle cx="1.7779" cy="31.7529" r="0.2500" /> 
<circle cx="1.0750" cy="33.4500" r="0.2500" /> 
<circle cx="42.9550" cy="34.9500" r="0.5000" /> 
<circle cx="45.4950" cy="34.9500" r="0.5000" /> 
</g> 
</svg>
